<mxfile host="app.diagrams.net" agent="Mozilla/5.0 (Windows NT 10.0; Win64; x64) AppleWebKit/537.36 (KHTML, like Gecko) Chrome/127.0.0.0 Safari/537.36" version="24.7.6">
  <diagram name="Page-1" id="10a91c8b-09ff-31b1-d368-03940ed4cc9e">
    <mxGraphModel dx="1155" dy="655" grid="1" gridSize="10" guides="1" tooltips="1" connect="1" arrows="1" fold="1" page="1" pageScale="1" pageWidth="1100" pageHeight="850" background="none" math="0" shadow="0">
      <root>
        <mxCell id="0" />
        <mxCell id="1" parent="0" />
        <mxCell id="62893188c0fa7362-1" value="T" style="whiteSpace=wrap;html=1;rounded=1;shadow=1;labelBackgroundColor=none;strokeWidth=1;fontFamily=Verdana;fontSize=12;align=center;" parent="1" vertex="1">
          <mxGeometry x="610" y="50" width="120" height="60" as="geometry" />
        </mxCell>
        <mxCell id="62893188c0fa7362-2" value="h1" style="whiteSpace=wrap;html=1;rounded=1;shadow=1;labelBackgroundColor=none;strokeWidth=1;fontFamily=Verdana;fontSize=12;align=center;fillColor=#fff2cc;strokeColor=#d6b656;" parent="1" vertex="1">
          <mxGeometry x="430" y="170" width="120" height="60" as="geometry" />
        </mxCell>
        <mxCell id="62893188c0fa7362-3" value="&lt;span&gt;h2&lt;/span&gt;" style="whiteSpace=wrap;html=1;rounded=1;shadow=1;labelBackgroundColor=none;strokeWidth=1;fontFamily=Verdana;fontSize=12;align=center;" parent="1" vertex="1">
          <mxGeometry x="780" y="170" width="120" height="60" as="geometry" />
        </mxCell>
        <mxCell id="62893188c0fa7362-4" value="" style="rounded=0;html=1;labelBackgroundColor=none;startArrow=none;startFill=0;startSize=5;endArrow=none;endFill=0;endSize=5;jettySize=auto;orthogonalLoop=1;strokeWidth=1;fontFamily=Verdana;fontSize=12" parent="1" source="62893188c0fa7362-1" target="62893188c0fa7362-3" edge="1">
          <mxGeometry x="-0.3002" y="13" relative="1" as="geometry">
            <mxPoint as="offset" />
          </mxGeometry>
        </mxCell>
        <mxCell id="62893188c0fa7362-5" value="" style="rounded=0;html=1;labelBackgroundColor=none;startArrow=none;startFill=0;startSize=5;endArrow=none;endFill=0;endSize=5;jettySize=auto;orthogonalLoop=1;strokeWidth=1;fontFamily=Verdana;fontSize=12" parent="1" source="62893188c0fa7362-1" target="62893188c0fa7362-2" edge="1">
          <mxGeometry x="-0.359" y="-11" relative="1" as="geometry">
            <mxPoint as="offset" />
          </mxGeometry>
        </mxCell>
        <mxCell id="62893188c0fa7362-8" value="&lt;span&gt;h11&lt;/span&gt;" style="whiteSpace=wrap;html=1;rounded=1;shadow=1;labelBackgroundColor=none;strokeWidth=1;fontFamily=Verdana;fontSize=12;align=center;fillColor=#fff2cc;strokeColor=#d6b656;" parent="1" vertex="1">
          <mxGeometry x="320" y="280" width="120" height="60" as="geometry" />
        </mxCell>
        <mxCell id="62893188c0fa7362-9" value="&lt;span&gt;h12&lt;/span&gt;" style="whiteSpace=wrap;html=1;rounded=1;shadow=1;labelBackgroundColor=none;strokeWidth=1;fontFamily=Verdana;fontSize=12;align=center;" parent="1" vertex="1">
          <mxGeometry x="540" y="280" width="120" height="60" as="geometry" />
        </mxCell>
        <mxCell id="62893188c0fa7362-10" value="&lt;span&gt;h21&lt;/span&gt;" style="whiteSpace=wrap;html=1;rounded=1;shadow=1;labelBackgroundColor=none;strokeWidth=1;fontFamily=Verdana;fontSize=12;align=center;" parent="1" vertex="1">
          <mxGeometry x="690" y="280" width="120" height="60" as="geometry" />
        </mxCell>
        <mxCell id="62893188c0fa7362-11" value="&lt;span&gt;h22&lt;/span&gt;" style="whiteSpace=wrap;html=1;rounded=1;shadow=1;labelBackgroundColor=none;strokeWidth=1;fontFamily=Verdana;fontSize=12;align=center;" parent="1" vertex="1">
          <mxGeometry x="880" y="280" width="120" height="60" as="geometry" />
        </mxCell>
        <mxCell id="62893188c0fa7362-12" value="&lt;span&gt;h111&lt;/span&gt;" style="whiteSpace=wrap;html=1;rounded=1;shadow=1;labelBackgroundColor=none;strokeWidth=1;fontFamily=Verdana;fontSize=12;align=center;" parent="1" vertex="1">
          <mxGeometry x="160" y="395" width="120" height="60" as="geometry" />
        </mxCell>
        <mxCell id="62893188c0fa7362-13" value="&lt;span&gt;h112&lt;/span&gt;" style="whiteSpace=wrap;html=1;rounded=1;shadow=1;labelBackgroundColor=none;strokeWidth=1;fontFamily=Verdana;fontSize=12;align=center;" parent="1" vertex="1">
          <mxGeometry x="490" y="395" width="120" height="60" as="geometry" />
        </mxCell>
        <mxCell id="62893188c0fa7362-14" value="" style="rounded=0;html=1;labelBackgroundColor=none;startArrow=none;startFill=0;startSize=5;endArrow=none;endFill=0;endSize=5;jettySize=auto;orthogonalLoop=1;strokeWidth=1;fontFamily=Verdana;fontSize=12" parent="1" source="62893188c0fa7362-2" target="62893188c0fa7362-8" edge="1">
          <mxGeometry x="-0.2" y="-14" relative="1" as="geometry">
            <mxPoint as="offset" />
          </mxGeometry>
        </mxCell>
        <mxCell id="62893188c0fa7362-15" value="" style="rounded=0;html=1;labelBackgroundColor=none;startArrow=none;startFill=0;startSize=5;endArrow=none;endFill=0;endSize=5;jettySize=auto;orthogonalLoop=1;strokeWidth=1;fontFamily=Verdana;fontSize=12" parent="1" source="62893188c0fa7362-2" target="62893188c0fa7362-9" edge="1">
          <mxGeometry x="-0.2" y="14" relative="1" as="geometry">
            <mxPoint as="offset" />
          </mxGeometry>
        </mxCell>
        <mxCell id="62893188c0fa7362-16" value="" style="rounded=0;html=1;labelBackgroundColor=none;startArrow=none;startFill=0;startSize=5;endArrow=none;endFill=0;endSize=5;jettySize=auto;orthogonalLoop=1;strokeWidth=1;fontFamily=Verdana;fontSize=12" parent="1" source="62893188c0fa7362-3" target="62893188c0fa7362-10" edge="1">
          <mxGeometry x="-0.2614" y="-13" relative="1" as="geometry">
            <mxPoint as="offset" />
          </mxGeometry>
        </mxCell>
        <mxCell id="62893188c0fa7362-17" value="" style="rounded=0;html=1;labelBackgroundColor=none;startArrow=none;startFill=0;startSize=5;endArrow=none;endFill=0;endSize=5;jettySize=auto;orthogonalLoop=1;strokeWidth=1;fontFamily=Verdana;fontSize=12" parent="1" source="62893188c0fa7362-3" target="62893188c0fa7362-11" edge="1">
          <mxGeometry x="-0.1294" y="17" relative="1" as="geometry">
            <mxPoint as="offset" />
          </mxGeometry>
        </mxCell>
        <mxCell id="62893188c0fa7362-18" value="" style="rounded=0;html=1;labelBackgroundColor=none;startArrow=none;startFill=0;startSize=5;endArrow=none;endFill=0;endSize=5;jettySize=auto;orthogonalLoop=1;strokeWidth=1;fontFamily=Verdana;fontSize=12" parent="1" source="62893188c0fa7362-8" target="62893188c0fa7362-12" edge="1">
          <mxGeometry x="-0.2168" y="-14" relative="1" as="geometry">
            <mxPoint as="offset" />
          </mxGeometry>
        </mxCell>
        <mxCell id="62893188c0fa7362-19" value="" style="rounded=0;html=1;labelBackgroundColor=none;startArrow=none;startFill=0;startSize=5;endArrow=none;endFill=0;endSize=5;jettySize=auto;orthogonalLoop=1;strokeWidth=1;fontFamily=Verdana;fontSize=12" parent="1" source="62893188c0fa7362-8" target="62893188c0fa7362-13" edge="1">
          <mxGeometry x="-0.2842" y="12" relative="1" as="geometry">
            <mxPoint as="offset" />
          </mxGeometry>
        </mxCell>
        <mxCell id="jLmR20qCTh-zn4PHW8NZ-12" value="" style="shape=stencil(lZzZ0hy3DYWfRrdd3Jdrx3kPV1mOVFEkl6xsbx8wCnv+Ppj5OrqT5ie62SSWgwOQ7/JPf3z45ff371L449vXL399/8+Pv3778C7/6V1KHz9/eP/14zf717v887v8029fvr7/y9cvf//86/f///7LGrn+9bcv/1hP+Nd3uZ6OlpZUCv/+/ks8cvzvD3/+Pv7Tx89vx+djVh0/YHw7ko7vGcbPI/XL+HSk+Xr8sPlHGT9pfD3KdXw+Go3vR26X8eVICcaPowUZX2n83Mv3GE/rM8PRr+tjH1RhfDzadf7tiDQ+6fh+BJpPPuqU8RO+d9pyXJ8/j9hgfNX1j+GoNKF2hOuEYjpCQYEuGmoq0UGgbws5Bep+5yuBLlNqaDRzHFGMsh+Vdm0c5ap1cRydtmHoNse5l+GVwLjqaQrHoI2zfb1OySwz0BvMEkQgH5GWdR5FXEU5Cgu0fBWoR+Mp9esqmfWgdc5jyhvG1veXAtdlzeEoIBBDOMJ1mXLaJvLyFeLx8lHIIOZR5Q3lTplEN3Ld73wl8D+LPAX6EWlKfavOKTB2nHjpBUTA1It2ruywcfrhsNXrleObEhgiu410jOtHl7y38pXrHlf9LhZ7WECWtZj3pCmFI0rwaUcBx2TRqlz1u3RUVwuHXQQGKp/F2ynxc+I3mEC8blwNR6I3tO0kToG43e0ryNCTCtxgDAlB1fae3lDclPL2PM8F8g6yp0A5Gm3cafKnQN1A5RWu0je0jRRfCYj7rn1Dg+cCBgRFYGBkH0Gdaz0d+iuBeHUCLex3vgKf+fqGdtrgcwGb8dW3trTdwnOBrhGl5a3wrwTEpltB1TDAna9eo9Xtz58L1O22ToGGrtIEgqxS337kuUBxyzoQVFqSUYsKTAjUK4u5OrI2j0FviGrT/UY1wk4TToGI9mAT6FfVsElSQLFPHCKQMcY15yptocmRmYD4JROY9AZTBFmlukP9c4Gq2YypI6m3KXO5mqgp/ISNM3ORfMCMlsC3GWS8qre5hQzxwXyEIAHzVIQSqwNY5gtplUwgXFdp+XMSGDuinQIVd9pcr2TFFvUozTLnrh/dEXzXpjZtoT7RKlW1h5X60pQcIjO4QhZnAuk6JQNEuKxZlW9mntIZxk+BgnjJBHRKJ//wXMCl64Zkybca2MmySh3fYHBKQpYJDNjpBdhkSgNXqTiwbgKdplQdJzBw4ww4SyJnOUsigagpzTyX4alAdkB3TvyG7EgBE6BlzdUp30RnvLK25gToDXHnVA/qJGDGYcmqGPWtRN1s2P8tkXRlbyWCsiE3Hx4dB7cEwOXH/kSfiMWKTWHczW7H+kSgw27HohBosRewSjHv3PCNQAaHHKMifBMINKXgvJ9BFpqS7asTwKRDU+pFhBGK04zanCWlHH3HwDfeOIBRuxi3cniYj5m0fG/A3LWoVxrnFz23aOV+V2qK4yX/MZxBwCSp3RiQoVQ6KZ4cgZVan7/YfjIzTe0NHFIefTKSb9AnQe6gKMngbYLIFpRlXYAb9C1o7cMQPelz2H99kzIQzDP7ku+NaMGOOrQkhYoBQXHqyttwPoLNLYEg5By2z3yTqhLYcYyBZQMN7NfVhhqvZ1b9XHwB7FfR51fmqqqGGQP2AfStHeOqP4a6KUkdGvANdFMImLuo8IZFov21kCGcvgHcThvmqkkL4MKKWtgTEzCAiwJVfWi5iZOmkkKSjv3LK3AgFS4DuAQFDX7IshY2gzg11i9EDPtghqNTKjtTfy4QVVMNQpMlJEeoGISmvNzHphJ21eu5QFHjN8xNwdusIYnA2NnVc4GuU8ptUyzPBRzoN5BOOW0+3e0pwNXk7DyS/UIRIRd18TmgaqwZS52OqTNbkyolq45OzDId6Rgwv0bLatskbtv2nqo9pggqkI5K6V1QJ2AKT6SQKXOW1GjyG5JynmblGdyMCQjdYX6EfL0ZpJZwK+flRaO5OU9KWkxA/JIJUGW8uDrGI8l4JSBeI3Jt0hyj7kNE9S5d7cGSDIpAy1cPFSDM84TuwPCwwo3wWswWBv1kznGqi7mdWbDoaGR+vpmW0P8YcKtrAKrYOFCLq54xA1Z3qn4GEjSD2hWkFn7+0PpI2Qv8iqwVZ5QxR1uQUSrPyDStCtN1fELuyyCsNjEg3mlZCxcJo2YrLh5wjlyVT4xICrSzwvwYT/bSuvNaCBPacA1DWFW0FKjo+EgNcEFLHAHRoKVkUhcN3GCXlERgdszGS4U9IIa3FDTo8yOVOPNOiR/jCz/fzR/rlVlr3xH9c3ekfdzo+dV4qWFFLrjmvf0P/accv5+U0GM8NkQmb1/UEGHjU/qR50f1nzfzj6o/EXt3etTcI2Jr2hrv7IvHN9Vn4pTW/KeML8QZph/U/6TE/o19Of98a79Tx6P/yUqKBa7WZ++vCM8s+1L/fONP3HiKv34+EfNE/70J47Vfz8Tr8ySe3ujPj42PyjckboAOmjhk1IfmehQztnusTgpJo3H9bXzU8VRLsXiddD6UlRgekIbvjB00q8Xgar8F/cnqMFA8SfrQXHwpjK+S4oeCxanmSPCKKVILqj91c2qv8Kqsf0P8Vof6Q9sQGt8diYwZm+F5qRp19IeWL1RpIcEGd8tHpMTOnaGW7wjeGJy/RFe5w5pIdSR45ABjCaQ2e3M/oqW0kjGsDncuyEtp8MHLvkrLNWZnbiqou3T9hlrAj66O7ShIU5Wiae0qqdIbiva2LuaXBLK2k8fOb0ju4MBA11XOTOoMBQGxWYlasEzcY1yCgpXEjM3qihaBgh+9OFeh2rjGll1+bgZHRapctaq7GBhiMJ3HyBG7QbKD+DlhjMoOw653MpMsICQ3JCSX05Io29FEV21I3jARFy3aRXgSbnBfcdI1uFP1aamaVCUS8+1J29rMBil2mvYnKWNUNKBlX/INDR1ZnFoyL3zyxkxedGmVk0CXomvCXB1ZJFC1vbDyxsXzxNkpwBSIOXcx0UUK0pSiKxzykanoKtWVWb2hILg29GNdlXs1nxOLpiSswSAqb1XXVB2wMlSUBGlc98xKCqw+cjJODT0PmPtivJDIBqMHqbWShqvFm+xGQXMbuF9x16VPkHf2Grwaf13/HrlBS0H/SgtxPrL+nTtlohY6OsOX+KQzhdYzKSbs3NWZVP/7wLJIUpJoMCvpSL0Ruebnns9nzoqSSoM7cdyp0HVOF/TBdytPZh00yZwJ8exwfb4Fs6ih6zMr+gfXqTH5IKI5XInFs7NBurNjq4+YXLpr/poMly3KiM0/jgG+imPaCz0Q18Wq5xDn4MOUrsFmcvFuNYpOFcAWyKHF8jmQPnna7Ppj/bRzMIhyLbt3Aq4r+KY92zceL4Gb1ma3D7RK2XdaDu627go1V086Ccwn2koneQ0cS0Y7bzoEXL5pBkT7UJzTM4FK2WDT2vfkQx3FcUHmZki9y1QyaDY8XFNdgrocHzju6pDCLMwHRU29ZuaCvCuAT+42qa6iNCOflSnaJrSiD72haE1jDMw3a1US8nFvxXOBpiY6GgbQeirCmwiNAl2zkFE4pLs7DAYz33Vqq9NIWKowzC66NLg22dyxkT6x+OaL851jXMt6+LI3bDFvDin1yt9Qle80qEpN408O/WXU1sfpzzdgG08Jupy532zcVL9k8J/QTJvKR/aAnbD2ZxFYfQGUcLrD+fZVWIdO2wu9SamwEOQwt+0Mdb/bvgoiMwE8ZuvczOq/5pO/ei63IBm+shx5Q+YTGk3PtJpJYfnXdSO2m/r+0ANz5haooWedUZCCzcSQ1aeC+/uD7dolzdh7RPV8lYswK1u7rtLjOOZzgaRYY10wQFPy9wUwJWTOXVmqhH5pFLcPzEeO4qYUMGkdVU3UBMiARnOXN/GBinWoVujFgUFxdP2G+ws3JKCUhpfirCs9ZEoVHdl0qWUpWHGeropRMt7pNR37sSondF+SO/tWArLn0+lS5pMb0yVNmds2Z9Odzv3uGiqJQJm99+zqNTJzqtMdD7G8i9KylfHIR99cNTSURlu3GfFFV9oMNfgSnaHZbmpYc1tJmFSTKjK9a5WkXsUXbkyXNKWMznidt5aqXkJyb+20tIhGPDe3qBvpmeFC43RNG3FiDXq6a0kiJ6/T5Q+xYYo/3T0mseIVN2aiUhGLhd1M1ZshImONlXnKKkX2Gll7B256Adb5UuGX+GY5V1HmIzH+hqi+0dCr4KD3qmBzhUUfwawVD+gN15nAB25G1ROVBZs3RlKOpWAg6a78l7m5y3n5hErd3b1NCXW6Jy1tJ6SJu2tGSrj+q7lRm9OwmdNVbBOSMev8qs7nphlPLw28a77V5gLOeNz4m/udHBKJeBPeGq/PJypprae4IER3a790/E2zsWuuvmuG1O+9aVa/GW//eFw9+9vHT5++31z79u96Va399P2a2/zzfwA=);lineShape=1;strokeColor=default;" vertex="1" parent="1">
          <mxGeometry x="269.82188008780304" y="129.98552647324925" width="322.5680434825199" height="254.2953193770037" as="geometry" />
        </mxCell>
      </root>
    </mxGraphModel>
  </diagram>
</mxfile>
